<?xml version="1.0" standalone="no"?><svg xmlns="http://www.w3.org/2000/svg" viewBox="0 0 1440 320"><path fill="#30444f" fill-opacity="1" d="M0,96L0,32L102.9,32L102.9,192L205.7,192L205.7,64L308.6,64L308.6,224L411.4,224L411.4,160L514.3,160L514.3,128L617.1,128L617.1,128L720,128L720,192L822.9,192L822.9,64L925.7,64L925.7,64L1028.6,64L1028.6,256L1131.4,256L1131.4,256L1234.3,256L1234.3,128L1337.1,128L1337.1,128L1440,128L1440,320L1337.1,320L1337.1,320L1234.3,320L1234.3,320L1131.4,320L1131.4,320L1028.6,320L1028.6,320L925.7,320L925.7,320L822.9,320L822.9,320L720,320L720,320L617.1,320L617.1,320L514.3,320L514.3,320L411.4,320L411.4,320L308.6,320L308.6,320L205.7,320L205.7,320L102.9,320L102.9,320L0,320L0,320Z"></path></svg>