<?xml version="1.0" standalone="no"?><svg xmlns="http://www.w3.org/2000/svg" viewBox="0 0 1440 320"><path fill="#30444f" fill-opacity="1" d="M0,96L0,32L102.9,32L102.9,192L205.7,192L205.7,64L308.6,64L308.6,224L411.4,224L411.4,160L514.3,160L514.3,128L617.1,128L617.1,128L720,128L720,192L822.9,192L822.9,64L925.7,64L925.7,64L1028.6,64L1028.6,256L1131.4,256L1131.4,256L1234.3,256L1234.3,128L1337.1,128L1337.1,128L1440,128L1440,0L1337.1,0L1337.1,0L1234.3,0L1234.3,0L1131.4,0L1131.4,0L1028.6,0L1028.6,0L925.7,0L925.7,0L822.9,0L822.9,0L720,0L720,0L617.1,0L617.1,0L514.3,0L514.3,0L411.4,0L411.4,0L308.6,0L308.6,0L205.7,0L205.7,0L102.9,0L102.9,0L0,0L0,0Z"></path></svg>